<svg width="126" height="22" viewBox="0 0 126 22" fill="none" xmlns="http://www.w3.org/2000/svg">
<path d="M28.9015 13.5712C28.5244 12.6992 28.3358 11.7584 28.3358 10.7487C28.3358 9.73898 28.5244 8.79813 28.9015 7.92612C29.2855 7.0541 29.8066 6.31978 30.4648 5.72314C31.123 5.11994 31.9047 4.64787 32.8097 4.30694C33.7148 3.966 34.6816 3.79553 35.7101 3.79553C38.1579 3.79553 40.04 4.80523 41.3565 6.82463L39.2481 7.84744C38.8984 7.27047 38.4047 6.80168 37.767 6.44107C37.1294 6.07391 36.4437 5.89033 35.7101 5.89033C34.3182 5.89033 33.1628 6.34928 32.2441 7.26719C31.3253 8.17854 30.8659 9.33904 30.8659 10.7487C30.8659 12.1583 31.3253 13.3221 32.2441 14.24C33.1628 15.1514 34.3182 15.607 35.7101 15.607C36.4506 15.607 37.1362 15.4267 37.767 15.0661C38.4047 14.7055 38.8984 14.2334 39.2481 13.6499L41.3565 14.6727C40.0194 16.6921 38.1373 17.7018 35.7101 17.7018C34.6816 17.7018 33.7148 17.5314 32.8097 17.1904C31.9047 16.8495 31.123 16.3807 30.4648 15.7841C29.8066 15.1809 29.2855 14.4433 28.9015 13.5712Z" fill="white"/>
<path d="M42.8068 14.476C42.8068 13.9384 42.9097 13.4631 43.1154 13.05C43.3279 12.6304 43.6056 12.2993 43.9484 12.0567C44.2981 11.8076 44.6752 11.6207 45.0798 11.4961C45.4912 11.3715 45.9128 11.3093 46.3448 11.3093C47.7847 11.3093 48.8783 11.7256 49.6257 12.5583V11.1126C49.6257 10.5553 49.4063 10.116 48.9674 9.79471C48.5355 9.46689 47.963 9.30298 47.2499 9.30298C46.1117 9.30298 45.1072 9.70948 44.2364 10.5225L43.3313 9.05711C44.4901 8.00807 45.9163 7.48355 47.6098 7.48355C48.1995 7.48355 48.7377 7.54912 49.2246 7.68025C49.7182 7.80482 50.1639 8.00151 50.5616 8.27033C50.9593 8.53259 51.2713 8.89975 51.4975 9.37182C51.7238 9.83733 51.8369 10.3848 51.8369 11.0142V17.456H49.6257V16.4135C49.2417 16.8265 48.7652 17.1445 48.1961 17.3674C47.6338 17.5904 47.0167 17.7018 46.3448 17.7018C45.9197 17.7018 45.5014 17.633 45.09 17.4953C44.6787 17.3576 44.2981 17.1609 43.9484 16.9052C43.6056 16.643 43.3279 16.302 43.1154 15.8824C42.9097 15.4628 42.8068 14.994 42.8068 14.476ZM45.0386 14.5154C45.0386 15.0333 45.2409 15.453 45.6454 15.7742C46.0568 16.0889 46.5779 16.2463 47.2087 16.2463C47.7093 16.2463 48.1755 16.1611 48.6075 15.9906C49.0394 15.8136 49.3788 15.5644 49.6257 15.2431V13.7679C49.3788 13.4467 49.0394 13.2008 48.6075 13.0303C48.1755 12.8533 47.7093 12.7648 47.2087 12.7648C46.5779 12.7648 46.0568 12.9254 45.6454 13.2467C45.2409 13.5614 45.0386 13.9843 45.0386 14.5154Z" fill="white"/>
<path d="M54.8609 17.456V7.72942H57.0721V9.15546C57.4766 8.67028 57.9703 8.27361 58.5531 7.96545C59.1359 7.6573 59.7462 7.50322 60.3838 7.50322V9.59802C60.1987 9.55868 59.9656 9.53901 59.6845 9.53901C59.2182 9.53901 58.7211 9.67014 58.1932 9.9324C57.6652 10.1881 57.2915 10.4864 57.0721 10.8274V17.456H54.8609Z" fill="white"/>
<path d="M67.9436 17.456V4.02173H74.1145C75.4927 4.02173 76.6034 4.41184 77.4468 5.19206C78.2902 5.97228 78.7118 6.98526 78.7118 8.23099C78.7118 8.80796 78.6193 9.33576 78.4342 9.81438C78.249 10.293 77.9953 10.6929 77.6731 11.0142C77.3577 11.3289 77.0046 11.5846 76.6137 11.7813C76.2298 11.978 75.8184 12.1091 75.3795 12.1747L78.8147 17.456H75.9761L72.8598 12.4403H70.412V17.456H67.9436ZM70.412 10.3651H73.7854C74.4848 10.3651 75.0573 10.1684 75.503 9.77504C75.9555 9.38165 76.1818 8.86697 76.1818 8.23099C76.1818 7.59501 75.9555 7.08033 75.503 6.68694C75.0573 6.29355 74.4848 6.09686 73.7854 6.09686H70.412V10.3651Z" fill="white"/>
<path d="M79.9976 12.5779C79.9976 11.6469 80.2136 10.7946 80.6456 10.0209C81.0844 9.24069 81.7015 8.62438 82.4969 8.17198C83.2922 7.71303 84.1802 7.48355 85.1606 7.48355C86.6691 7.48355 87.8793 7.98185 88.7912 8.97843C89.71 9.96846 90.1694 11.2371 90.1694 12.7845V13.286H82.3117C82.4009 14.0531 82.73 14.6924 83.2991 15.2038C83.875 15.7087 84.6258 15.9611 85.5515 15.9611C86.0657 15.9611 86.5868 15.8693 87.1148 15.6857C87.6496 15.4956 88.0918 15.2333 88.4415 14.8989L89.4494 16.2856C88.9489 16.7446 88.3421 17.0954 87.629 17.3379C86.9159 17.5805 86.148 17.7018 85.3252 17.7018C83.7825 17.7018 82.5071 17.2298 81.4992 16.2856C80.4982 15.3349 79.9976 14.099 79.9976 12.5779ZM82.2912 11.801H88.0198C88.0061 11.4994 87.941 11.2044 87.8244 10.9159C87.7147 10.6208 87.5502 10.3422 87.3307 10.0799C87.1113 9.81766 86.8131 9.60785 86.436 9.4505C86.0657 9.29314 85.6406 9.21446 85.1606 9.21446C84.7081 9.21446 84.2967 9.29314 83.9265 9.4505C83.5631 9.6013 83.2682 9.80782 83.042 10.0701C82.8226 10.3258 82.6477 10.6012 82.5174 10.8962C82.394 11.1847 82.3186 11.4863 82.2912 11.801Z" fill="white"/>
<path d="M92.5042 17.456V7.72942H94.7155V9.05711C95.0994 8.62438 95.6068 8.25394 96.2376 7.94578C96.8684 7.63763 97.5541 7.48355 98.2946 7.48355C99.3779 7.48355 100.197 7.75237 100.753 8.29C101.308 8.82763 101.586 9.6013 101.586 10.611V17.456H99.3745V11.3781C99.3745 10.6569 99.1962 10.1422 98.8397 9.83405C98.49 9.51934 97.9861 9.36198 97.3278 9.36198C96.793 9.36198 96.2925 9.48984 95.8262 9.74554C95.36 9.99468 94.9897 10.3028 94.7155 10.67V17.456H92.5042Z" fill="white"/>
<path d="M103.365 9.57835V7.72942H105.052V5.06421H107.263V7.72942H109.33V9.57835H107.263V14.6727C107.263 15.0137 107.349 15.2923 107.52 15.5087C107.692 15.7185 107.932 15.8234 108.24 15.8234C108.439 15.8234 108.631 15.7906 108.816 15.725C109.001 15.6529 109.138 15.571 109.228 15.4792L109.752 17.0724C109.293 17.492 108.597 17.7018 107.664 17.7018C106.814 17.7018 106.166 17.4887 105.72 17.0626C105.275 16.6298 105.052 16.0103 105.052 15.2038V9.57835H103.365Z" fill="white"/>
<path d="M110.884 14.476C110.884 13.9384 110.987 13.4631 111.192 13.05C111.405 12.6304 111.682 12.2993 112.025 12.0567C112.375 11.8076 112.752 11.6207 113.157 11.4961C113.568 11.3715 113.99 11.3093 114.422 11.3093C115.862 11.3093 116.955 11.7256 117.703 12.5583V11.1126C117.703 10.5553 117.483 10.116 117.044 9.79471C116.612 9.46689 116.04 9.30298 115.327 9.30298C114.189 9.30298 113.184 9.70948 112.313 10.5225L111.408 9.05711C112.567 8.00807 113.993 7.48355 115.687 7.48355C116.276 7.48355 116.815 7.54912 117.301 7.68025C117.795 7.80482 118.241 8.00151 118.638 8.27033C119.036 8.53259 119.348 8.89975 119.574 9.37182C119.801 9.83733 119.914 10.3848 119.914 11.0142V17.456H117.703V16.4135C117.319 16.8265 116.842 17.1445 116.273 17.3674C115.711 17.5904 115.094 17.7018 114.422 17.7018C113.997 17.7018 113.578 17.633 113.167 17.4953C112.756 17.3576 112.375 17.1609 112.025 16.9052C111.682 16.643 111.405 16.302 111.192 15.8824C110.987 15.4628 110.884 14.994 110.884 14.476ZM113.115 14.5154C113.115 15.0333 113.318 15.453 113.722 15.7742C114.134 16.0889 114.655 16.2463 115.286 16.2463C115.786 16.2463 116.252 16.1611 116.684 15.9906C117.116 15.8136 117.456 15.5644 117.703 15.2431V13.7679C117.456 13.4467 117.116 13.2008 116.684 13.0303C116.252 12.8533 115.786 12.7648 115.286 12.7648C114.655 12.7648 114.134 12.9254 113.722 13.2467C113.318 13.5614 113.115 13.9843 113.115 14.5154Z" fill="white"/>
<path d="M122.938 17.456V4.02173H125.149V17.456H122.938Z" fill="white"/>
<path d="M28.9015 13.5712C28.5244 12.6992 28.3358 11.7584 28.3358 10.7487C28.3358 9.73898 28.5244 8.79813 28.9015 7.92612C29.2855 7.0541 29.8066 6.31978 30.4648 5.72314C31.123 5.11994 31.9047 4.64787 32.8097 4.30694C33.7148 3.966 34.6816 3.79553 35.7101 3.79553C38.1579 3.79553 40.04 4.80523 41.3565 6.82463L39.2481 7.84744C38.8984 7.27047 38.4047 6.80168 37.767 6.44107C37.1294 6.07391 36.4437 5.89033 35.7101 5.89033C34.3182 5.89033 33.1628 6.34928 32.2441 7.26719C31.3253 8.17854 30.8659 9.33904 30.8659 10.7487C30.8659 12.1583 31.3253 13.3221 32.2441 14.24C33.1628 15.1514 34.3182 15.607 35.7101 15.607C36.4506 15.607 37.1362 15.4267 37.767 15.0661C38.4047 14.7055 38.8984 14.2334 39.2481 13.6499L41.3565 14.6727C40.0194 16.6921 38.1373 17.7018 35.7101 17.7018C34.6816 17.7018 33.7148 17.5314 32.8097 17.1904C31.9047 16.8495 31.123 16.3807 30.4648 15.7841C29.8066 15.1809 29.2855 14.4433 28.9015 13.5712Z" stroke="white" stroke-width="0.702113"/>
<path d="M42.8068 14.476C42.8068 13.9384 42.9097 13.4631 43.1154 13.05C43.3279 12.6304 43.6056 12.2993 43.9484 12.0567C44.2981 11.8076 44.6752 11.6207 45.0798 11.4961C45.4912 11.3715 45.9128 11.3093 46.3448 11.3093C47.7847 11.3093 48.8783 11.7256 49.6257 12.5583V11.1126C49.6257 10.5553 49.4063 10.116 48.9674 9.79471C48.5355 9.46689 47.963 9.30298 47.2499 9.30298C46.1117 9.30298 45.1072 9.70948 44.2364 10.5225L43.3313 9.05711C44.4901 8.00807 45.9163 7.48355 47.6098 7.48355C48.1995 7.48355 48.7377 7.54912 49.2246 7.68025C49.7182 7.80482 50.1639 8.00151 50.5616 8.27033C50.9593 8.53259 51.2713 8.89975 51.4975 9.37182C51.7238 9.83733 51.8369 10.3848 51.8369 11.0142V17.456H49.6257V16.4135C49.2417 16.8265 48.7652 17.1445 48.1961 17.3674C47.6338 17.5904 47.0167 17.7018 46.3448 17.7018C45.9197 17.7018 45.5014 17.633 45.09 17.4953C44.6787 17.3576 44.2981 17.1609 43.9484 16.9052C43.6056 16.643 43.3279 16.302 43.1154 15.8824C42.9097 15.4628 42.8068 14.994 42.8068 14.476ZM45.0386 14.5154C45.0386 15.0333 45.2409 15.453 45.6454 15.7742C46.0568 16.0889 46.5779 16.2463 47.2087 16.2463C47.7093 16.2463 48.1755 16.1611 48.6075 15.9906C49.0394 15.8136 49.3788 15.5644 49.6257 15.2431V13.7679C49.3788 13.4467 49.0394 13.2008 48.6075 13.0303C48.1755 12.8533 47.7093 12.7648 47.2087 12.7648C46.5779 12.7648 46.0568 12.9254 45.6454 13.2467C45.2409 13.5614 45.0386 13.9843 45.0386 14.5154Z" stroke="white" stroke-width="0.702113"/>
<path d="M54.8609 17.456V7.72942H57.0721V9.15546C57.4766 8.67028 57.9703 8.27361 58.5531 7.96545C59.1359 7.6573 59.7462 7.50322 60.3838 7.50322V9.59802C60.1987 9.55868 59.9656 9.53901 59.6845 9.53901C59.2182 9.53901 58.7211 9.67014 58.1932 9.9324C57.6652 10.1881 57.2915 10.4864 57.0721 10.8274V17.456H54.8609Z" stroke="white" stroke-width="0.702113"/>
<path d="M67.9436 17.456V4.02173H74.1145C75.4927 4.02173 76.6034 4.41184 77.4468 5.19206C78.2902 5.97228 78.7118 6.98526 78.7118 8.23099C78.7118 8.80796 78.6193 9.33576 78.4342 9.81438C78.249 10.293 77.9953 10.6929 77.6731 11.0142C77.3577 11.3289 77.0046 11.5846 76.6137 11.7813C76.2298 11.978 75.8184 12.1091 75.3795 12.1747L78.8147 17.456H75.9761L72.8598 12.4403H70.412V17.456H67.9436ZM70.412 10.3651H73.7854C74.4848 10.3651 75.0573 10.1684 75.503 9.77504C75.9555 9.38165 76.1818 8.86697 76.1818 8.23099C76.1818 7.59501 75.9555 7.08033 75.503 6.68694C75.0573 6.29355 74.4848 6.09686 73.7854 6.09686H70.412V10.3651Z" stroke="white" stroke-width="0.702113"/>
<path d="M79.9976 12.5779C79.9976 11.6469 80.2136 10.7946 80.6456 10.0209C81.0844 9.24069 81.7015 8.62438 82.4969 8.17198C83.2922 7.71303 84.1802 7.48355 85.1606 7.48355C86.6691 7.48355 87.8793 7.98185 88.7912 8.97843C89.71 9.96846 90.1694 11.2371 90.1694 12.7845V13.286H82.3117C82.4009 14.0531 82.73 14.6924 83.2991 15.2038C83.875 15.7087 84.6258 15.9611 85.5515 15.9611C86.0657 15.9611 86.5868 15.8693 87.1148 15.6857C87.6496 15.4956 88.0918 15.2333 88.4415 14.8989L89.4494 16.2856C88.9489 16.7446 88.3421 17.0954 87.629 17.3379C86.9159 17.5805 86.148 17.7018 85.3252 17.7018C83.7825 17.7018 82.5071 17.2298 81.4992 16.2856C80.4982 15.3349 79.9976 14.099 79.9976 12.5779ZM82.2912 11.801H88.0198C88.0061 11.4994 87.941 11.2044 87.8244 10.9159C87.7147 10.6208 87.5502 10.3422 87.3307 10.0799C87.1113 9.81766 86.8131 9.60785 86.436 9.4505C86.0657 9.29314 85.6406 9.21446 85.1606 9.21446C84.7081 9.21446 84.2967 9.29314 83.9265 9.4505C83.5631 9.6013 83.2682 9.80782 83.042 10.0701C82.8226 10.3258 82.6477 10.6012 82.5174 10.8962C82.394 11.1847 82.3186 11.4863 82.2912 11.801Z" stroke="white" stroke-width="0.702113"/>
<path d="M92.5042 17.456V7.72942H94.7155V9.05711C95.0994 8.62438 95.6068 8.25394 96.2376 7.94578C96.8684 7.63763 97.5541 7.48355 98.2946 7.48355C99.3779 7.48355 100.197 7.75237 100.753 8.29C101.308 8.82763 101.586 9.6013 101.586 10.611V17.456H99.3745V11.3781C99.3745 10.6569 99.1962 10.1422 98.8397 9.83405C98.49 9.51934 97.9861 9.36198 97.3278 9.36198C96.793 9.36198 96.2925 9.48984 95.8262 9.74554C95.36 9.99468 94.9897 10.3028 94.7155 10.67V17.456H92.5042Z" stroke="white" stroke-width="0.702113"/>
<path d="M103.365 9.57835V7.72942H105.052V5.06421H107.263V7.72942H109.33V9.57835H107.263V14.6727C107.263 15.0137 107.349 15.2923 107.52 15.5087C107.692 15.7185 107.932 15.8234 108.24 15.8234C108.439 15.8234 108.631 15.7906 108.816 15.725C109.001 15.6529 109.138 15.571 109.228 15.4792L109.752 17.0724C109.293 17.492 108.597 17.7018 107.664 17.7018C106.814 17.7018 106.166 17.4887 105.72 17.0626C105.275 16.6298 105.052 16.0103 105.052 15.2038V9.57835H103.365Z" stroke="white" stroke-width="0.702113"/>
<path d="M110.884 14.476C110.884 13.9384 110.987 13.4631 111.192 13.05C111.405 12.6304 111.682 12.2993 112.025 12.0567C112.375 11.8076 112.752 11.6207 113.157 11.4961C113.568 11.3715 113.99 11.3093 114.422 11.3093C115.862 11.3093 116.955 11.7256 117.703 12.5583V11.1126C117.703 10.5553 117.483 10.116 117.044 9.79471C116.612 9.46689 116.04 9.30298 115.327 9.30298C114.189 9.30298 113.184 9.70948 112.313 10.5225L111.408 9.05711C112.567 8.00807 113.993 7.48355 115.687 7.48355C116.276 7.48355 116.815 7.54912 117.301 7.68025C117.795 7.80482 118.241 8.00151 118.638 8.27033C119.036 8.53259 119.348 8.89975 119.574 9.37182C119.801 9.83733 119.914 10.3848 119.914 11.0142V17.456H117.703V16.4135C117.319 16.8265 116.842 17.1445 116.273 17.3674C115.711 17.5904 115.094 17.7018 114.422 17.7018C113.997 17.7018 113.578 17.633 113.167 17.4953C112.756 17.3576 112.375 17.1609 112.025 16.9052C111.682 16.643 111.405 16.302 111.192 15.8824C110.987 15.4628 110.884 14.994 110.884 14.476ZM113.115 14.5154C113.115 15.0333 113.318 15.453 113.722 15.7742C114.134 16.0889 114.655 16.2463 115.286 16.2463C115.786 16.2463 116.252 16.1611 116.684 15.9906C117.116 15.8136 117.456 15.5644 117.703 15.2431V13.7679C117.456 13.4467 117.116 13.2008 116.684 13.0303C116.252 12.8533 115.786 12.7648 115.286 12.7648C114.655 12.7648 114.134 12.9254 113.722 13.2467C113.318 13.5614 113.115 13.9843 113.115 14.5154Z" stroke="white" stroke-width="0.702113"/>
<path d="M122.938 17.456V4.02173H125.149V17.456H122.938Z" stroke="white" stroke-width="0.702113"/>
<path d="M11.457 0C7.92297 0 4.77211 1.52005 2.65735 3.9087C3.63667 3.86798 4.95662 3.82727 6.71656 3.82727C10.1655 3.82727 11.9254 3.94941 12.8054 4.05799C13.3163 4.12585 13.7705 4.42443 14.026 4.85873L15.4879 7.42381H15.8995C15.9137 7.19309 16.1124 7.00308 16.3537 7.00308H16.3678C16.9781 7.00308 17.5317 7.35595 17.7446 7.9124C17.8013 8.06169 17.6878 8.21098 17.5317 8.21098H16.3962C17.5885 8.88957 18.3975 10.1382 18.3975 11.5632V14.3319C18.3975 15.3634 17.5175 16.2048 16.4388 16.2048H14.6931C14.1821 16.2048 13.6996 16.0555 13.2738 15.8112C13.0751 16.1234 12.7202 16.327 12.3228 16.327H1.39417C3.35281 19.7064 7.12816 22 11.457 22C17.8155 22 22.9676 17.0734 22.9676 10.9932C22.9676 4.92659 17.8155 0 11.457 0ZM18.071 17.2363C18.071 17.752 17.631 18.1727 17.0917 18.1727H15.5446C15.0053 18.1727 14.5653 17.752 14.5653 17.2363V16.6934H18.071V17.2363Z" fill="white"/>
<path d="M14.8208 7.32889L13.5576 5.11668C13.3873 4.81809 13.0892 4.62809 12.7344 4.5738C11.897 4.46523 10.1797 4.34308 6.71656 4.34308C4.65857 4.34308 3.21087 4.38379 2.21736 4.43808C1.47932 5.38811 0.897406 6.47386 0.5 7.62747H14.6221C14.7924 7.64104 14.906 7.46461 14.8208 7.32889Z" fill="white"/>
<path d="M14.2388 14.0604C13.9976 14.0604 13.8272 14.2776 13.8982 14.4947C14.0827 15.024 14.622 15.4041 15.2323 15.4041H16.68C16.9639 15.4041 17.191 15.1869 17.191 14.9155V14.5355C17.191 14.264 16.9639 14.0469 16.68 14.0469H14.2388V14.0604Z" fill="white"/>
<path d="M2.85606 13.8977C2.67155 13.8977 2.558 14.0741 2.64316 14.237L2.69993 14.3456C2.82767 14.5899 3.09734 14.7392 3.3812 14.7392H10.0519C10.3358 14.7392 10.6055 14.5899 10.7332 14.3456L10.79 14.237C10.8751 14.0877 10.7616 13.8977 10.5771 13.8977H2.85606Z" fill="white"/>
<path d="M15.8285 9.55457C15.2182 9.55457 14.7357 10.0296 14.7357 10.5996V12.1739C14.7357 12.3368 14.8918 12.4589 15.0621 12.4182L16.7227 11.9975C16.8504 11.9704 16.9356 11.8618 16.9356 11.7396V10.5996C16.9214 10.016 16.4388 9.55457 15.8285 9.55457Z" fill="white"/>
</svg>
